<?xml version="1.0" standalone="no"?>
<!DOCTYPE svg PUBLIC "-//W3C//DTD SVG 20010904//EN"
 "http://www.w3.org/TR/2001/REC-SVG-20010904/DTD/svg10.dtd">
<svg version="1.0" xmlns="http://www.w3.org/2000/svg"
 width="400.000000pt" height="400.000000pt" viewBox="0 0 400.000000 400.000000"
 preserveAspectRatio="xMidYMid meet">
<metadata>
Created by potrace 1.11, written by Peter Selinger 2001-2013
</metadata>
<g transform="translate(0.000000,400.000000) scale(0.100000,-0.100000)"
fill="#000000" stroke="none">
<path d="M1838 3416 c-1 -2 -33 -6 -70 -10 -271 -25 -560 -163 -776 -371 -35
-33 -66 -61 -70 -62 -15 -6 -52 66 -63 121 l-12 57 -19 -28 c-10 -15 -26 -41
-34 -58 -8 -16 -24 -47 -35 -68 -32 -61 -50 -146 -54 -253 -3 -87 -7 -107 -28
-140 -54 -87 -96 -200 -136 -367 -20 -84 -16 -89 14 -17 25 60 37 73 24 25
-25 -91 -28 -112 -34 -277 -3 -87 -2 -139 5 -143 6 -4 10 9 10 32 0 70 17 68
23 -4 7 -75 9 -86 32 -175 49 -192 176 -420 319 -572 30 -33 52 -64 49 -69 -3
-6 -2 -7 4 -4 6 4 29 -11 52 -32 22 -21 41 -36 41 -33 0 3 8 -4 18 -15 9 -11
25 -22 34 -26 10 -3 18 -11 18 -17 0 -5 4 -10 10 -10 13 0 124 -71 128 -82 2
-4 8 -6 13 -2 5 3 12 -2 15 -11 5 -11 9 -13 13 -6 5 7 15 4 29 -9 12 -11 25
-20 29 -19 4 0 9 -5 11 -13 2 -8 0 -9 -5 -3 -4 6 -15 11 -23 13 -11 2 -9 -2 4
-13 10 -8 23 -12 27 -9 5 3 9 0 9 -5 0 -6 -6 -11 -12 -11 -7 -1 0 -8 16 -16
24 -13 31 -14 42 -2 12 11 11 15 -6 26 -14 9 -19 9 -18 1 2 -6 -1 -13 -7 -15
-5 -2 -11 8 -12 23 0 14 2 22 5 17 4 -5 16 -11 27 -12 11 -2 22 -7 25 -11 3
-4 12 -6 20 -6 8 0 18 -4 22 -10 4 -5 15 -11 25 -12 63 -9 104 -23 97 -34 -3
-5 0 -9 5 -9 6 0 11 5 11 11 0 5 5 7 10 4 8 -5 7 -11 -1 -21 -13 -16 -7 -27
16 -30 8 -1 13 2 9 7 -3 5 -10 6 -16 3 -6 -4 -9 -1 -6 7 2 7 15 16 29 20 l24
6 -27 11 c-14 6 -30 17 -34 24 -6 10 -5 10 9 0 9 -8 21 -11 27 -7 5 3 10 2 10
-4 0 -6 8 -8 18 -5 14 5 15 4 2 -5 -13 -9 -13 -11 0 -11 9 -1 5 -6 -10 -15
-14 -8 -19 -14 -12 -15 6 0 21 9 33 21 11 11 24 18 27 14 4 -4 -4 -15 -17 -26
-13 -10 -19 -19 -13 -19 5 0 15 7 22 15 10 12 16 13 26 4 8 -6 14 -8 14 -3 0
5 5 2 10 -6 7 -11 10 -11 10 -2 0 7 4 11 9 7 5 -3 12 -1 16 4 3 6 28 8 58 4
29 -3 60 -6 69 -7 9 0 14 -4 11 -9 -3 -5 -12 -6 -22 -2 -13 5 -13 4 -4 -6 10
-10 16 -9 31 5 18 16 20 15 36 -6 l17 -23 -12 24 c-10 21 -9 23 6 18 9 -4 19
-7 21 -7 3 0 3 -4 0 -9 -4 -5 1 -8 10 -7 21 3 34 25 26 45 -5 14 -4 14 10 1 9
-8 13 -19 10 -25 -10 -17 -11 -36 -1 -29 5 3 7 10 4 15 -4 5 1 12 10 15 14 6
14 8 -1 19 -16 11 -16 12 0 18 11 5 15 3 10 -5 -5 -8 -1 -9 12 -4 10 4 42 10
69 12 28 2 57 7 66 9 9 3 19 -1 23 -10 3 -9 0 -15 -10 -15 -8 0 -12 5 -8 11 4
8 0 8 -15 0 -12 -7 -27 -9 -34 -5 -6 4 -5 1 3 -7 8 -8 20 -21 28 -29 11 -13
12 -12 3 7 -10 20 -9 22 16 20 19 -1 28 3 28 13 0 20 14 29 37 25 10 -2 18 -1
18 3 0 4 14 7 30 7 17 0 30 -3 30 -7 0 -5 0 -11 0 -15 0 -5 -5 -1 -10 7 -5 8
-10 10 -10 4 0 -6 -17 -10 -38 -9 -36 1 -38 0 -33 -24 4 -23 5 -24 10 -6 5 15
14 20 41 20 42 -1 61 11 53 33 -3 9 -3 14 1 10 4 -3 23 0 41 8 43 18 45 18 39
-3 -2 -10 1 -8 7 5 7 12 16 22 21 22 13 0 122 53 129 63 3 4 14 5 24 1 13 -5
16 -4 11 5 -12 18 64 81 89 74 l20 -5 -20 17 c-16 14 -17 16 -3 11 10 -3 17
-2 16 2 -5 26 19 66 56 89 112 70 228 175 285 258 27 39 61 106 66 129 1 6 5
22 9 36 11 41 14 112 5 143 -6 22 -3 40 15 76 31 61 71 188 92 286 18 91 22
289 6 350 -5 22 -13 54 -17 70 -7 29 -8 27 -30 -35 -13 -36 -24 -56 -25 -45 0
11 -2 58 -4 105 -5 105 -12 146 -38 234 -32 112 -105 244 -180 331 -25 28 -43
33 -34 9 4 -9 -24 14 -62 52 -37 38 -83 78 -101 88 l-34 19 6 -22 c7 -28 3
-27 -46 13 -69 57 -208 139 -292 175 -44 18 -87 37 -96 41 -15 8 -194 54 -254
65 -33 6 -291 15 -297 11z m-388 -2696 c0 -5 -5 -10 -11 -10 -5 0 -7 5 -4 10
3 6 8 10 11 10 2 0 4 -4 4 -10z m356 -44 c13 2 24 0 24 -4 0 -14 -53 -8 -56 6
-1 7 0 8 2 3 3 -5 16 -7 30 -5z m204 4 c0 -5 -4 -10 -9 -10 -6 0 -13 5 -16 10
-3 6 1 10 9 10 9 0 16 -4 16 -10z m62 -4 c3 -5 4 -15 1 -22 -4 -11 -10 -10
-29 3 -13 8 -24 20 -24 25 0 11 42 7 52 -6z"/>
<path d="M2835 981 c-3 -5 -2 -12 3 -15 5 -3 9 1 9 9 0 17 -3 19 -12 6z"/>
<path d="M1016 958 c3 -4 11 -5 19 -1 21 7 19 12 -4 10 -11 0 -18 -5 -15 -9z"/>
<path d="M2890 960 c0 -5 5 -10 11 -10 5 0 7 5 4 10 -3 6 -8 10 -11 10 -2 0
-4 -4 -4 -10z"/>
<path d="M1073 895 c0 -8 4 -12 9 -9 4 3 8 9 8 15 0 5 -4 9 -8 9 -5 0 -9 -7
-9 -15z"/>
<path d="M1110 890 l-25 -21 28 12 c15 7 27 16 27 21 0 11 -1 10 -30 -12z"/>
<path d="M1150 879 c0 -5 4 -9 9 -9 11 0 26 -40 22 -55 -1 -5 1 -7 5 -3 4 4
13 0 21 -10 13 -16 13 -15 4 4 -5 11 -6 26 -2 33 11 18 19 3 17 -35 -1 -21 3
-30 11 -27 7 3 11 9 8 13 -8 12 6 41 16 34 5 -3 7 -9 4 -14 -3 -5 1 -22 9 -37
8 -16 15 -23 16 -17 0 6 11 12 25 12 14 0 23 -3 21 -6 -6 -6 24 -31 38 -32 6
0 2 6 -8 13 -9 7 -16 19 -14 27 2 9 -4 15 -15 15 -10 0 -23 7 -28 15 -9 13
-10 13 -6 -2 4 -9 -1 -19 -10 -22 -11 -5 -14 -2 -9 10 7 18 -21 57 -34 49 -4
-2 -15 4 -25 15 -14 16 -21 17 -32 8 -12 -10 -14 -9 -11 6 2 12 -4 20 -14 21
-10 2 -18 -1 -18 -6z m53 -34 c-3 -9 -8 -14 -10 -11 -3 3 -2 9 2 15 9 16 15
13 8 -4z"/>
<path d="M2755 880 c-3 -5 -1 -10 4 -10 6 0 11 5 11 10 0 6 -2 10 -4 10 -3 0
-8 -4 -11 -10z"/>
<path d="M1118 863 c7 -3 16 -2 19 1 4 3 -2 6 -13 5 -11 0 -14 -3 -6 -6z"/>
<path d="M1030 856 c0 -2 8 -10 18 -17 15 -13 16 -12 3 4 -13 16 -21 21 -21
13z"/>
<path d="M2737 845 c-4 -8 -3 -16 1 -19 4 -3 9 4 9 15 2 23 -3 25 -10 4z"/>
<path d="M2773 847 c0 -8 6 -14 14 -14 9 0 10 4 2 14 -6 7 -12 13 -14 13 -1 0
-2 -6 -2 -13z"/>
<path d="M1075 840 c3 -5 8 -10 11 -10 2 0 4 5 4 10 0 6 -5 10 -11 10 -5 0 -7
-4 -4 -10z"/>
<path d="M1106 838 c3 -5 10 -6 15 -3 13 9 11 12 -6 12 -8 0 -12 -4 -9 -9z"/>
<path d="M2813 831 c0 -11 5 -18 9 -15 4 3 5 11 1 19 -7 21 -12 19 -10 -4z"/>
<path d="M1150 820 c0 -5 5 -10 10 -10 6 0 10 5 10 10 0 6 -4 10 -10 10 -5 0
-10 -4 -10 -10z"/>
<path d="M2650 806 c0 -2 7 -7 16 -10 8 -3 12 -2 9 4 -6 10 -25 14 -25 6z"/>
<path d="M1180 780 c-9 -6 -10 -10 -3 -10 6 0 15 5 18 10 8 12 4 12 -15 0z"/>
<path d="M2628 783 c6 -2 18 -2 25 0 6 3 1 5 -13 5 -14 0 -19 -2 -12 -5z"/>
<path d="M1115 769 c-4 -6 -5 -12 -2 -15 2 -3 7 2 10 11 7 17 1 20 -8 4z"/>
<path d="M2576 772 c-2 -4 -1 -14 4 -22 7 -11 9 -9 7 8 -1 24 -3 26 -11 14z"/>
<path d="M2601 764 c0 -11 3 -14 6 -6 3 7 2 16 -1 19 -3 4 -6 -2 -5 -13z"/>
<path d="M1242 757 c-8 -10 -6 -13 7 -13 11 0 17 6 14 13 -3 7 -6 13 -8 13 -1
0 -7 -6 -13 -13z"/>
<path d="M2650 755 c5 -7 6 -16 2 -21 -4 -5 -3 -5 2 -1 15 12 15 34 0 34 -9 0
-11 -4 -4 -12z"/>
<path d="M2550 753 c5 -2 8 -9 4 -14 -3 -5 0 -9 6 -9 15 0 7 23 -8 26 -7 1 -8
0 -2 -3z"/>
<path d="M1299 748 c-5 -15 -4 -50 1 -53 3 -2 6 9 6 26 0 24 -3 37 -7 27z"/>
<path d="M2690 746 c0 -2 7 -7 16 -10 8 -3 12 -2 9 4 -6 10 -25 14 -25 6z"/>
<path d="M1321 724 c0 -11 3 -14 6 -6 3 7 2 16 -1 19 -3 4 -6 -2 -5 -13z"/>
<path d="M2461 727 c-8 -10 -7 -14 4 -14 8 0 11 5 8 10 -3 5 0 7 8 5 8 -3 13
-10 12 -16 -2 -7 4 -9 14 -5 12 5 14 3 8 -7 -6 -9 -4 -11 5 -5 10 6 7 12 -11
26 -29 22 -33 23 -48 6z"/>
<path d="M1476 715 c-9 -26 -7 -32 5 -12 6 10 9 21 6 23 -2 3 -7 -2 -11 -11z"/>
<path d="M1505 708 c4 -9 13 -19 21 -22 7 -3 11 -12 8 -21 -3 -8 -4 -15 -1
-15 17 0 12 32 -9 51 -17 16 -23 18 -19 7z"/>
<path d="M1540 708 c0 -2 9 -11 20 -21 11 -9 20 -13 20 -7 0 5 -9 14 -20 20
-11 6 -20 9 -20 8z"/>
<path d="M1592 695 c4 -4 3 -16 -3 -26 -5 -11 -7 -19 -5 -19 3 0 10 9 16 19 7
15 7 22 -2 27 -7 4 -10 4 -6 -1z"/>
<path d="M2473 687 c0 -8 6 -14 14 -14 9 0 10 4 2 14 -6 7 -12 13 -14 13 -1 0
-2 -6 -2 -13z"/>
<path d="M1418 672 c-11 -15 -11 -15 2 -6 8 6 23 10 33 8 11 -1 16 0 13 4 -13
12 -36 10 -48 -6z"/>
<path d="M2183 668 c8 -13 13 -14 19 -5 6 9 8 9 8 0 0 -7 5 -13 10 -13 6 0 5
8 -2 19 -6 11 -19 19 -29 18 -13 -1 -14 -5 -6 -19z"/>
<path d="M2426 682 c-3 -5 1 -9 9 -9 8 0 12 4 9 9 -3 4 -7 8 -9 8 -2 0 -6 -4
-9 -8z"/>
<path d="M2146 665 c3 -8 10 -13 14 -10 5 3 11 -1 13 -7 4 -10 6 -10 6 -1 1 7
-8 17 -19 23 -16 9 -18 8 -14 -5z"/>
<path d="M2357 669 c7 -7 15 -10 18 -7 3 3 -2 9 -12 12 -14 6 -15 5 -6 -5z"/>
<path d="M1620 650 c6 -11 13 -20 16 -20 2 0 0 9 -6 20 -6 11 -13 20 -16 20
-2 0 0 -9 6 -20z"/>
<path d="M1757 635 c-4 -8 -3 -16 1 -19 4 -3 9 4 9 15 2 23 -3 25 -10 4z"/>
<path d="M1840 639 c0 -5 5 -7 10 -4 6 3 10 8 10 11 0 2 -4 4 -10 4 -5 0 -10
-5 -10 -11z"/>
<path d="M1895 641 c-3 -5 0 -13 6 -17 7 -4 9 -3 5 4 -3 6 2 13 11 15 16 4 16
5 1 6 -9 0 -19 -3 -23 -8z"/>
<path d="M2120 642 c0 -5 7 -9 15 -9 8 0 12 4 9 9 -3 4 -9 8 -15 8 -5 0 -9 -4
-9 -8z"/>
<path d="M2230 636 c0 -2 8 -10 18 -17 15 -13 16 -12 3 4 -13 16 -21 21 -21
13z"/>
<path d="M1575 621 c-3 -5 -2 -12 3 -15 5 -3 9 1 9 9 0 17 -3 19 -12 6z"/>
<path d="M1807 619 c7 -7 15 -10 18 -7 3 3 -2 9 -12 12 -14 6 -15 5 -6 -5z"/>
<path d="M1860 620 c-9 -6 -10 -10 -3 -10 6 0 15 5 18 10 8 12 4 12 -15 0z"/>
<path d="M1914 608 l-19 -23 23 19 c21 18 27 26 19 26 -2 0 -12 -10 -23 -22z"/>
<path d="M1975 620 c-3 -5 -1 -10 4 -10 6 0 11 5 11 10 0 6 -2 10 -4 10 -3 0
-8 -4 -11 -10z"/>
<path d="M1633 605 c0 -8 4 -12 9 -9 5 3 6 10 3 15 -9 13 -12 11 -12 -6z"/>
<path d="M2350 601 c0 -6 4 -13 10 -16 6 -3 7 1 4 9 -7 18 -14 21 -14 7z"/>
</g>
</svg>
